# xmcd
#
# Track frame offsets:
#	150
#	21421
#	44840
#	67625
#	86510
#	110694
#	129807
#	150572
#	172927
#	198748
#	239200
#	257284
#	286298
#	308103
#
# Disc length: 4349 seconds
#
# Revision: 2
# Processed by: cddbd v1.5.1PL2 Copyright (c) Steve Scherf et al.
# Submitted via: audiograbber 1.83.01
#
DISCID=bd10fb0e
DTITLE=Varios artistas - Que le pongan salsa 2000 CD 1
DYEAR=2000
DGENRE=Salsa
TTITLE0=Frankie Ruiz - Para darte fuego
TTITLE1=Lalo Rodríguez - Devórame otra vez
TTITLE2=Andy Montañéz - Me los estás poniendo difícil
TTITLE3=Tommy Olivencia - Señora
TTITLE4=Marvin Santiago - Auditorio azul
TTITLE5=Willy Chirino - Caminando me voy
TTITLE6=Edgar Joel - Me atrapa la noche
TTITLE7=Eddie Santiago - Lluvia
TTITLE8=Manolito y su Trabuco - Marcando la distancia
TTITLE9=Roberto Torres - Caballo viejo (Directo)
TTITLE10=La Charanga Rubalcaba - Rico bacilón
TTITLE11=Frankie Ruiz - La rueda
TTITLE12=Andy Montañéz - Ámame otra vez
TTITLE13=Salsa Kids - Déjame un beso
EXTD=YEAR: 2000
EXTT0=
EXTT1=
EXTT2=
EXTT3=
EXTT4=
EXTT5=
EXTT6=
EXTT7=
EXTT8=
EXTT9=
EXTT10=
EXTT11=
EXTT12=
EXTT13=
PLAYORDER=
